<mxfile host="app.diagrams.net" modified="2023-10-12T09:23:35.675Z" agent="Mozilla/5.0 (Windows NT 10.0; Win64; x64) AppleWebKit/537.36 (KHTML, like Gecko) Chrome/117.0.0.0 Safari/537.36" etag="1hGO1uFTfQhisSTVeXVc" version="22.0.4" type="github">
  <diagram name="Page-1" id="3x8DNwjmQVearWOK0_YK">
    <mxGraphModel dx="880" dy="446" grid="1" gridSize="10" guides="1" tooltips="1" connect="1" arrows="1" fold="1" page="1" pageScale="1" pageWidth="850" pageHeight="1100" background="#97D077" math="0" shadow="0">
      <root>
        <mxCell id="0" />
        <mxCell id="1" parent="0" />
        <mxCell id="opAY8OrrcNn2l7qWQIN1-2" value="Record of the Inventory" style="swimlane;startSize=30;fontFamily=Tahoma;fontSize=14;" vertex="1" parent="1">
          <mxGeometry x="400" y="140" width="550" height="160" as="geometry" />
        </mxCell>
        <mxCell id="opAY8OrrcNn2l7qWQIN1-7" style="edgeStyle=orthogonalEdgeStyle;rounded=0;orthogonalLoop=1;jettySize=auto;html=1;exitX=1;exitY=0.15;exitDx=0;exitDy=0;exitPerimeter=0;entryX=0;entryY=0.75;entryDx=0;entryDy=0;" edge="1" parent="1" source="opAY8OrrcNn2l7qWQIN1-4" target="opAY8OrrcNn2l7qWQIN1-2">
          <mxGeometry relative="1" as="geometry" />
        </mxCell>
        <mxCell id="opAY8OrrcNn2l7qWQIN1-4" value="SYSTEM" style="strokeWidth=2;html=1;shape=mxgraph.flowchart.database;whiteSpace=wrap;" vertex="1" parent="1">
          <mxGeometry x="150" y="280" width="160" height="130" as="geometry" />
        </mxCell>
        <mxCell id="opAY8OrrcNn2l7qWQIN1-6" style="edgeStyle=orthogonalEdgeStyle;rounded=0;orthogonalLoop=1;jettySize=auto;html=1;exitX=1;exitY=0.5;exitDx=0;exitDy=0;exitPerimeter=0;entryX=0;entryY=0.25;entryDx=0;entryDy=0;" edge="1" parent="1" source="opAY8OrrcNn2l7qWQIN1-5" target="opAY8OrrcNn2l7qWQIN1-2">
          <mxGeometry relative="1" as="geometry" />
        </mxCell>
        <mxCell id="opAY8OrrcNn2l7qWQIN1-5" value="INVENTORY" style="strokeWidth=2;html=1;shape=mxgraph.flowchart.direct_data;whiteSpace=wrap;" vertex="1" parent="1">
          <mxGeometry x="130" y="40" width="140" height="110" as="geometry" />
        </mxCell>
        <mxCell id="opAY8OrrcNn2l7qWQIN1-11" value="ACCESS THE RECORDS AND THE SYSTEM" style="text;html=1;align=center;verticalAlign=middle;resizable=0;points=[];autosize=1;strokeColor=none;fillColor=none;" vertex="1" parent="1">
          <mxGeometry x="280" y="50" width="270" height="30" as="geometry" />
        </mxCell>
        <mxCell id="opAY8OrrcNn2l7qWQIN1-12" value="ACCESS THE RECORDS AND THE INVENTORY" style="text;html=1;align=center;verticalAlign=middle;resizable=0;points=[];autosize=1;strokeColor=none;fillColor=none;" vertex="1" parent="1">
          <mxGeometry x="320" y="340" width="290" height="30" as="geometry" />
        </mxCell>
        <mxCell id="opAY8OrrcNn2l7qWQIN1-10" value="&lt;div&gt;&lt;br&gt;&lt;/div&gt;&lt;p style=&quot;text-align: justify; font-size: 14px;&quot;&gt;&lt;span style=&quot;background-color: initial;&quot;&gt;&lt;font style=&quot;font-size: 14px;&quot;&gt;The system will have an initial quantity of the product.&amp;nbsp;&lt;br&gt;&lt;/font&gt;&lt;/span&gt;&lt;font style=&quot;font-size: 14px;&quot;&gt;&lt;span style=&quot;background-color: initial;&quot;&gt;When the material used the quantity use is calculated&lt;br&gt;&lt;/span&gt;&lt;/font&gt;&lt;font style=&quot;font-size: 14px;&quot;&gt;The new quantity is calculated by subtracting the initial quantity and the used quantity.&lt;/font&gt;&lt;/p&gt;&lt;div style=&quot;text-align: justify; font-size: 14px;&quot;&gt;When new materials are added in the inventory the system and the record is updated.&lt;/div&gt;" style="text;html=1;align=center;verticalAlign=middle;resizable=0;points=[];autosize=1;strokeColor=none;fillColor=none;" vertex="1" parent="1">
          <mxGeometry x="400" y="170" width="550" height="120" as="geometry" />
        </mxCell>
        <mxCell id="opAY8OrrcNn2l7qWQIN1-13" style="edgeStyle=orthogonalEdgeStyle;rounded=0;orthogonalLoop=1;jettySize=auto;html=1;exitX=0;exitY=1;exitDx=0;exitDy=0;entryX=1;entryY=0.5;entryDx=0;entryDy=0;entryPerimeter=0;" edge="1" parent="1" source="opAY8OrrcNn2l7qWQIN1-2" target="opAY8OrrcNn2l7qWQIN1-4">
          <mxGeometry relative="1" as="geometry" />
        </mxCell>
        <mxCell id="opAY8OrrcNn2l7qWQIN1-14" style="edgeStyle=orthogonalEdgeStyle;rounded=0;orthogonalLoop=1;jettySize=auto;html=1;exitX=0;exitY=0;exitDx=0;exitDy=0;entryX=0.979;entryY=0.727;entryDx=0;entryDy=0;entryPerimeter=0;" edge="1" parent="1" source="opAY8OrrcNn2l7qWQIN1-2" target="opAY8OrrcNn2l7qWQIN1-5">
          <mxGeometry relative="1" as="geometry" />
        </mxCell>
        <mxCell id="opAY8OrrcNn2l7qWQIN1-36" style="edgeStyle=orthogonalEdgeStyle;rounded=0;orthogonalLoop=1;jettySize=auto;html=1;exitX=0.5;exitY=0;exitDx=0;exitDy=0;exitPerimeter=0;entryX=0;entryY=0.5;entryDx=0;entryDy=0;" edge="1" parent="1" source="opAY8OrrcNn2l7qWQIN1-15" target="opAY8OrrcNn2l7qWQIN1-20">
          <mxGeometry relative="1" as="geometry" />
        </mxCell>
        <mxCell id="opAY8OrrcNn2l7qWQIN1-37" style="edgeStyle=orthogonalEdgeStyle;rounded=0;orthogonalLoop=1;jettySize=auto;html=1;exitX=0.5;exitY=0.5;exitDx=0;exitDy=0;exitPerimeter=0;entryX=0;entryY=0.5;entryDx=0;entryDy=0;" edge="1" parent="1" source="opAY8OrrcNn2l7qWQIN1-15" target="opAY8OrrcNn2l7qWQIN1-24">
          <mxGeometry relative="1" as="geometry" />
        </mxCell>
        <mxCell id="opAY8OrrcNn2l7qWQIN1-15" value="Actor" style="shape=umlActor;verticalLabelPosition=bottom;verticalAlign=top;html=1;outlineConnect=0;" vertex="1" parent="1">
          <mxGeometry x="215" y="520" width="30" height="60" as="geometry" />
        </mxCell>
        <mxCell id="opAY8OrrcNn2l7qWQIN1-34" style="edgeStyle=orthogonalEdgeStyle;rounded=0;orthogonalLoop=1;jettySize=auto;html=1;exitX=0.5;exitY=0;exitDx=0;exitDy=0;exitPerimeter=0;entryX=0;entryY=0.5;entryDx=0;entryDy=0;" edge="1" parent="1" source="opAY8OrrcNn2l7qWQIN1-16" target="opAY8OrrcNn2l7qWQIN1-21">
          <mxGeometry relative="1" as="geometry" />
        </mxCell>
        <mxCell id="opAY8OrrcNn2l7qWQIN1-16" value="Actor" style="shape=umlActor;verticalLabelPosition=bottom;verticalAlign=top;html=1;outlineConnect=0;" vertex="1" parent="1">
          <mxGeometry x="215" y="720" width="30" height="60" as="geometry" />
        </mxCell>
        <mxCell id="opAY8OrrcNn2l7qWQIN1-17" value="EMPLOYEE" style="text;html=1;align=center;verticalAlign=middle;resizable=0;points=[];autosize=1;strokeColor=none;fillColor=none;" vertex="1" parent="1">
          <mxGeometry x="185" y="808" width="90" height="30" as="geometry" />
        </mxCell>
        <mxCell id="opAY8OrrcNn2l7qWQIN1-18" value="CUSTOMER" style="text;html=1;align=center;verticalAlign=middle;resizable=0;points=[];autosize=1;strokeColor=none;fillColor=none;" vertex="1" parent="1">
          <mxGeometry x="190" y="598" width="90" height="30" as="geometry" />
        </mxCell>
        <mxCell id="opAY8OrrcNn2l7qWQIN1-39" style="edgeStyle=orthogonalEdgeStyle;rounded=0;orthogonalLoop=1;jettySize=auto;html=1;exitX=1;exitY=0.5;exitDx=0;exitDy=0;entryX=0;entryY=0;entryDx=0;entryDy=0;" edge="1" parent="1" source="opAY8OrrcNn2l7qWQIN1-20" target="opAY8OrrcNn2l7qWQIN1-22">
          <mxGeometry relative="1" as="geometry" />
        </mxCell>
        <mxCell id="opAY8OrrcNn2l7qWQIN1-20" value="Input Requirements for the Products" style="ellipse;whiteSpace=wrap;html=1;" vertex="1" parent="1">
          <mxGeometry x="350" y="490" width="120" height="80" as="geometry" />
        </mxCell>
        <mxCell id="opAY8OrrcNn2l7qWQIN1-38" style="edgeStyle=orthogonalEdgeStyle;rounded=0;orthogonalLoop=1;jettySize=auto;html=1;exitX=0.5;exitY=0;exitDx=0;exitDy=0;entryX=0.5;entryY=1;entryDx=0;entryDy=0;" edge="1" parent="1" source="opAY8OrrcNn2l7qWQIN1-21" target="opAY8OrrcNn2l7qWQIN1-24">
          <mxGeometry relative="1" as="geometry" />
        </mxCell>
        <mxCell id="opAY8OrrcNn2l7qWQIN1-21" value="Create the Product&amp;nbsp;" style="ellipse;whiteSpace=wrap;html=1;" vertex="1" parent="1">
          <mxGeometry x="365" y="710" width="120" height="80" as="geometry" />
        </mxCell>
        <mxCell id="opAY8OrrcNn2l7qWQIN1-28" style="edgeStyle=orthogonalEdgeStyle;rounded=0;orthogonalLoop=1;jettySize=auto;html=1;exitX=0;exitY=0.5;exitDx=0;exitDy=0;entryX=1;entryY=0.5;entryDx=0;entryDy=0;" edge="1" parent="1" source="opAY8OrrcNn2l7qWQIN1-22" target="opAY8OrrcNn2l7qWQIN1-21">
          <mxGeometry relative="1" as="geometry" />
        </mxCell>
        <mxCell id="opAY8OrrcNn2l7qWQIN1-22" value="Review the requirements" style="ellipse;whiteSpace=wrap;html=1;" vertex="1" parent="1">
          <mxGeometry x="610" y="575" width="120" height="80" as="geometry" />
        </mxCell>
        <mxCell id="opAY8OrrcNn2l7qWQIN1-33" style="edgeStyle=orthogonalEdgeStyle;rounded=0;orthogonalLoop=1;jettySize=auto;html=1;exitX=1;exitY=0.5;exitDx=0;exitDy=0;entryX=0;entryY=0.5;entryDx=0;entryDy=0;" edge="1" parent="1" source="opAY8OrrcNn2l7qWQIN1-23" target="opAY8OrrcNn2l7qWQIN1-27">
          <mxGeometry relative="1" as="geometry" />
        </mxCell>
        <mxCell id="opAY8OrrcNn2l7qWQIN1-23" value="Record the inventory" style="ellipse;whiteSpace=wrap;html=1;" vertex="1" parent="1">
          <mxGeometry x="390" y="820" width="120" height="80" as="geometry" />
        </mxCell>
        <mxCell id="opAY8OrrcNn2l7qWQIN1-24" value="Review the product" style="ellipse;whiteSpace=wrap;html=1;" vertex="1" parent="1">
          <mxGeometry x="355" y="600" width="120" height="80" as="geometry" />
        </mxCell>
        <mxCell id="opAY8OrrcNn2l7qWQIN1-31" style="edgeStyle=orthogonalEdgeStyle;rounded=0;orthogonalLoop=1;jettySize=auto;html=1;exitX=0.5;exitY=0;exitDx=0;exitDy=0;exitPerimeter=0;entryX=0.5;entryY=0;entryDx=0;entryDy=0;" edge="1" parent="1" source="opAY8OrrcNn2l7qWQIN1-25" target="opAY8OrrcNn2l7qWQIN1-22">
          <mxGeometry relative="1" as="geometry" />
        </mxCell>
        <mxCell id="opAY8OrrcNn2l7qWQIN1-32" style="edgeStyle=orthogonalEdgeStyle;rounded=0;orthogonalLoop=1;jettySize=auto;html=1;exitX=0.5;exitY=0.5;exitDx=0;exitDy=0;exitPerimeter=0;entryX=1;entryY=0.5;entryDx=0;entryDy=0;" edge="1" parent="1" source="opAY8OrrcNn2l7qWQIN1-25" target="opAY8OrrcNn2l7qWQIN1-27">
          <mxGeometry relative="1" as="geometry" />
        </mxCell>
        <mxCell id="opAY8OrrcNn2l7qWQIN1-25" value="Actor" style="shape=umlActor;verticalLabelPosition=bottom;verticalAlign=top;html=1;outlineConnect=0;" vertex="1" parent="1">
          <mxGeometry x="800" y="540" width="30" height="60" as="geometry" />
        </mxCell>
        <mxCell id="opAY8OrrcNn2l7qWQIN1-26" value="MANAGER" style="text;html=1;align=center;verticalAlign=middle;resizable=0;points=[];autosize=1;strokeColor=none;fillColor=none;" vertex="1" parent="1">
          <mxGeometry x="775" y="625" width="80" height="30" as="geometry" />
        </mxCell>
        <mxCell id="opAY8OrrcNn2l7qWQIN1-27" value="Review the records" style="ellipse;whiteSpace=wrap;html=1;" vertex="1" parent="1">
          <mxGeometry x="615" y="720" width="120" height="80" as="geometry" />
        </mxCell>
        <mxCell id="opAY8OrrcNn2l7qWQIN1-29" value="Gives the guideline of the project" style="text;html=1;align=center;verticalAlign=middle;resizable=0;points=[];autosize=1;strokeColor=none;fillColor=none;" vertex="1" parent="1">
          <mxGeometry x="550" y="670" width="200" height="30" as="geometry" />
        </mxCell>
        <mxCell id="opAY8OrrcNn2l7qWQIN1-35" style="edgeStyle=orthogonalEdgeStyle;rounded=0;orthogonalLoop=1;jettySize=auto;html=1;exitX=0.5;exitY=0.5;exitDx=0;exitDy=0;exitPerimeter=0;entryX=-0.008;entryY=0.388;entryDx=0;entryDy=0;entryPerimeter=0;" edge="1" parent="1" source="opAY8OrrcNn2l7qWQIN1-16" target="opAY8OrrcNn2l7qWQIN1-23">
          <mxGeometry relative="1" as="geometry">
            <Array as="points">
              <mxPoint x="290" y="750" />
              <mxPoint x="290" y="851" />
            </Array>
          </mxGeometry>
        </mxCell>
      </root>
    </mxGraphModel>
  </diagram>
</mxfile>
